<svg width="33" height="32" viewBox="0 0 33 32" fill="none" xmlns="http://www.w3.org/2000/svg">
<path d="M8.95675 8.50139C10.6288 8.50139 12.0031 8.84339 13.0798 9.52739C14.1564 10.1987 14.7074 11.1994 14.7328 12.5294V12.7574H10.7998V12.6814C10.7998 12.3014 10.6604 11.9847 10.3818 11.7314C10.1031 11.4781 9.67875 11.3514 9.10875 11.3514C8.55142 11.3514 8.12075 11.4337 7.81675 11.5984C7.52542 11.7631 7.37975 11.9657 7.37975 12.2064C7.37975 12.5484 7.58242 12.8017 7.98775 12.9664C8.39309 13.1311 9.04542 13.3021 9.94475 13.4794C10.9961 13.6947 11.8574 13.9227 12.5288 14.1634C13.2128 14.3914 13.8081 14.7714 14.3148 15.3034C14.8214 15.8354 15.0811 16.5574 15.0938 17.4694C15.0938 19.0147 14.5681 20.1611 13.5168 20.9084C12.4781 21.6557 11.0848 22.0294 9.33675 22.0294C7.29742 22.0294 5.70775 21.6874 4.56775 21.0034C3.44042 20.3194 2.87675 19.1097 2.87675 17.3744H6.84775C6.84775 18.0331 7.01875 18.4764 7.36075 18.7044C7.70275 18.9197 8.23475 19.0274 8.95675 19.0274C9.48875 19.0274 9.92575 18.9704 10.2678 18.8564C10.6224 18.7424 10.7998 18.5081 10.7998 18.1534C10.7998 17.8367 10.6034 17.6024 10.2108 17.4504C9.83075 17.2857 9.20375 17.1147 8.32975 16.9374C7.26575 16.7094 6.38542 16.4751 5.68875 16.2344C4.99209 15.9811 4.38409 15.5694 3.86475 14.9994C3.34542 14.4294 3.08575 13.6567 3.08575 12.6814C3.08575 11.2501 3.63675 10.1987 4.73875 9.52739C5.85342 8.84339 7.25942 8.50139 8.95675 8.50139ZM17.1777 8.72939H21.3767V18.4574H28.0837V21.8014H17.1777V8.72939Z" fill="#1573FF"/>
<path d="M29.0124 16.0626C29.5484 15.9761 29.9561 16.0986 30.093 16.1706C30.1146 16.2355 30.1795 16.3911 30.2659 16.4948C30.374 16.6245 30.482 16.819 30.5252 17.3377C30.5685 17.8564 30.4172 17.7915 30.5252 17.878C30.6333 17.9644 30.6333 18.0941 30.6333 18.375C30.6333 18.5998 30.5324 18.8145 30.482 18.8937C30.2731 19.0306 29.6521 19.3692 28.8395 19.6285C27.8237 19.9527 23.242 20.6659 20.9728 20.8388C18.7035 21.0117 15.8507 20.6659 15.2456 20.6659C14.6405 20.6659 14.5108 20.3417 14.0137 20.385C13.5166 20.4282 11.1177 20.0392 9.86423 19.9311C8.61074 19.823 8.48107 19.7366 7.11952 19.6718C5.75797 19.6069 3.42388 18.8721 2.60262 18.5912C1.78137 18.3102 1.41397 17.986 0.938505 17.878C0.463043 17.7699 -0.0772553 17.5106 0.00919146 17.2944C0.0956401 17.0783 0.614326 17.1216 1.21946 17.1864C1.82459 17.2512 3.59677 17.1864 4.22352 17.2944C4.85027 17.4025 7.68143 17.2944 10.102 17.2944C12.5225 17.2944 12.3496 17.1864 12.8251 17.2944C13.3005 17.4025 15.0295 17.3377 16.5207 17.4025C18.0119 17.4673 20.7999 17.1864 21.3402 17.1864C21.8805 17.1864 22.5288 17.1432 23.7823 17.0567C25.0358 16.9703 26.9593 16.2787 27.7373 16.3435C28.5153 16.4084 28.3424 16.1706 29.0124 16.0626Z" fill="#AB0000"/>
<path d="M16.5423 18.9071C17.0264 19.0281 17.9831 18.6262 18.4009 18.41C18.3721 18.5469 18.1848 18.8682 17.6661 19.0584C17.0178 19.2961 17.1474 19.3177 16.5423 19.1665C15.9372 19.0152 15.8075 19.0152 15.4185 18.9719C15.0295 18.9287 14.7269 19.08 14.6189 19.0584C14.5108 19.0368 14.4027 19.0584 14.2731 19.0152C14.1434 18.9719 13.9921 19.0152 13.7544 18.9719C13.5642 18.9374 13.4878 18.9864 13.4734 19.0152L13.3437 18.8207C13.3365 18.8567 13.253 18.9374 12.9763 18.9719C12.6997 19.0065 12.5153 19.0008 12.4577 18.9936C12.4937 19.0224 12.5873 19.093 12.6738 19.1448C12.7818 19.2097 13.1276 19.2097 13.6895 19.2745C14.2514 19.3393 14.554 19.361 14.7701 19.3826C14.9863 19.4042 15.0511 19.469 15.4185 19.6419C15.7859 19.8148 16.0452 19.6419 16.4343 19.5987C16.8233 19.5555 16.9097 19.5555 17.1474 19.6419C17.3852 19.7284 17.1474 19.8364 16.9746 19.7716C16.8017 19.7068 16.8017 19.8364 16.7152 19.9229C16.6288 20.0093 16.5423 19.9229 15.9156 19.9229C15.2888 19.9229 15.4833 19.8364 14.943 19.8364C14.4027 19.8364 14.5756 19.7068 14.1866 19.5987C13.7976 19.4906 12.1767 19.4258 11.2474 19.4258C10.3181 19.4258 10.102 19.2529 9.92906 19.3177C9.75617 19.3826 9.69133 19.2961 9.30232 19.2097C8.9133 19.1232 8.5459 19.1665 8.0056 19.1232C7.4653 19.08 6.96823 19.1448 6.90339 19.1232C6.83856 19.1016 6.38471 18.9287 6.31987 18.9071C6.25504 18.8855 5.90925 18.8639 5.69313 18.9071C5.47701 18.9503 5.47701 18.9503 4.80704 18.8207C4.13707 18.691 4.26674 18.6262 3.94256 18.6478C3.61838 18.6694 3.70483 18.6045 3.4671 18.5829C3.22937 18.5613 3.20776 18.4316 2.97002 18.3668C2.73229 18.302 2.32167 18.2588 2.12716 18.2155C1.93265 18.1723 1.93265 18.1291 1.97588 17.9778C2.0191 17.8265 1.88943 17.8265 1.71653 17.7401C1.54364 17.6536 1.52202 17.5456 1.63008 17.4375C1.73814 17.3294 1.82459 17.3511 2.0191 17.5456C2.21361 17.7401 2.23522 17.6104 2.84035 17.6104C3.44549 17.6104 3.2942 17.6104 3.53193 17.6968C3.76967 17.7833 3.92095 17.7617 4.30996 17.7401C4.69898 17.7185 4.72059 17.7833 4.93671 17.8265C5.1096 17.8611 5.34013 18.0282 5.43378 18.1075C5.41938 18.0931 5.42082 18.0556 5.54184 18.021C5.66287 17.9864 5.76517 18.0066 5.80119 18.021L5.75796 18.2155C5.86602 18.1579 6.14698 18.0297 6.40632 17.9778C6.44093 17.9709 6.46618 17.9654 6.48422 17.9612C6.57322 17.9405 6.487 17.95 6.48422 17.9612C6.48228 17.9691 6.52083 17.9778 6.68728 17.9778C7.05036 17.9778 7.06909 18.1363 7.03307 18.2155C7.26359 18.1363 7.81542 17.9778 8.1785 17.9778C8.63235 17.9778 8.50268 17.8049 8.58912 18.41C8.67557 19.0152 8.63235 19.1448 8.84847 18.9071C9.02136 18.7169 8.92051 18.3668 8.84847 18.2155C8.99975 18.1363 9.39309 18.0253 9.75617 18.2155C10.0578 18.3735 10.1615 18.4927 10.1839 18.5533C10.1607 18.3784 10.1761 18.0594 10.4045 17.9778C10.7071 17.8697 10.8368 18.1075 11.1393 18.2155C11.4419 18.3236 11.9822 18.2155 12.3712 18.2155C12.7602 18.2155 13.2141 18.41 13.4518 18.5829C13.6895 18.7558 14.8998 18.7342 15.1592 18.7126C15.4185 18.691 15.9372 18.7558 16.5423 18.9071Z" fill="#CC1D1D"/>
<path d="M30.4351 17.0918C30.4067 16.6379 30.1901 16.3642 30.0677 16.2057C30.1973 16.2057 30.4956 16.3094 30.7376 16.465C31.0402 16.6595 31.3644 16.5947 31.7102 16.6379C32.056 16.6812 32.0992 16.8757 32.0344 17.0918C31.9695 17.3079 31.9047 17.2863 31.7102 17.3511C31.5157 17.416 31.4292 17.5024 31.2347 17.7401C31.0816 17.9272 30.651 18.5481 30.445 18.8494C30.4415 18.855 30.4382 18.8598 30.4351 18.864C30.4383 18.8592 30.4417 18.8543 30.445 18.8494C30.4909 18.7767 30.5703 18.5799 30.5864 18.2588C30.6036 17.913 30.4927 17.769 30.4351 17.7401C30.4423 17.6393 30.4524 17.3684 30.4351 17.0918Z" fill="#005226"/>
</svg>

